<svg width="824" height="477" viewBox="0 0 824 477" fill="none" xmlns="http://www.w3.org/2000/svg">
<g clip-path="url(#clip0_47_74)">
<path d="M15.0488 36.8025C19.1818 37.3799 48.8707 54.0872 54.1169 56.8702C101.734 82.1302 148.285 109.133 195.297 135.409C192.849 140.774 191.577 144.854 189.796 150.43L184.976 148.72C137.363 125.697 86.5341 105.385 38.3899 83.2776C26.4493 77.7951 13.875 72.9554 2.08447 67.2769C3.49951 56.6185 8.49957 45.3215 15.0488 36.8025Z" fill="white"/>
<path d="M809.543 37.0388C816.119 42.0077 821.14 59.8741 822.34 68.0894C817.987 70.4688 809.218 74.0759 804.357 76.2514L770.845 91.3986L643.314 148.6L637.944 151.119C636.34 145.526 634.748 140.802 632.838 135.34C689.77 101.887 751.368 68.6099 809.543 37.0388Z" fill="#8C5CFF"/>
<path d="M186.058 300.5L187.165 300.449C188.77 302.583 188.109 312.706 188.05 316.088L53.6756 373.751C37.1378 380.738 18.8654 389.065 2.15623 395.237L1.11287 395.482C-0.514633 392.672 0.338909 363.122 0.512191 358.009C37.0276 347.043 73.4701 335.831 109.837 324.377C135.178 316.209 160.586 308.249 186.058 300.5Z" fill="white"/>
<path d="M639.42 299.482C643.559 301.249 655.016 304.531 659.834 306.062L698.728 318.561L823.289 358.37C824.091 366.955 823.418 386.475 823.552 396.119C821.005 396.505 654.483 322.839 639.022 316.518C639.475 310.932 639.39 305.103 639.42 299.482Z" fill="#8C5CFF"/>
<path d="M0.601523 96.3748C22.5331 103.069 51.9237 115.015 73.7934 123.358C111.345 137.685 150.883 152.333 187.98 167.675C188.293 172.172 188.068 179.231 188.068 183.917C179.511 182.295 168.241 178.718 159.747 176.23C147.329 172.586 134.882 169.037 122.409 165.584L0.520706 132.058C-0.143645 121.702 0.25006 106.84 0.601523 96.3748Z" fill="white"/>
<path d="M634.852 332.485C638.704 333.347 664.935 347.465 670.384 350.288C701.63 366.526 732.735 383.028 763.7 399.793C781.101 409.167 799.275 418.603 816.382 428.332C813.737 437.1 810.523 441.35 804.638 448.299C802.336 450.62 799.967 452.867 797.523 455.041C791.884 452.512 779.822 444.326 774.335 440.652L741.577 418.799L682.116 379.752C663.772 367.916 646.241 357.097 628.074 344.851C630.915 340.228 632.538 337.368 634.852 332.485Z" fill="#8C5CFF"/>
<path d="M191.404 332.24C192.492 332.761 196.973 341.93 198.73 344.661C141.348 379.978 82.9394 418.339 25.9301 454.655C23.8397 453.1 20.9264 450.314 18.9131 448.501C12.4459 441.044 10.088 437.737 6.58252 428.51C13.362 424.413 23.0835 419.625 30.2487 415.847L73.3605 393.186C112.599 372.661 151.948 352.345 191.404 332.24Z" fill="white"/>
<path d="M182.238 267.569L188.01 267.151C188.133 272.273 188.038 277.697 188.034 282.845C128.341 297.251 66.6626 312.533 6.53981 324.589C3.96262 325.206 3.62462 325.344 1.02845 325.246C-0.479656 322.514 0.381858 294.815 0.661681 290.295C5.40459 289.183 15.1396 288.255 20.1869 287.673C31.261 286.431 42.3284 285.134 53.3897 283.78L182.238 267.569Z" fill="white"/>
<path d="M821.765 97.1703C822.646 97.1458 822.157 97.0656 823.173 97.6228C823.92 101.155 823.595 126.91 823.589 132.519C819.138 134.202 809.647 136.464 804.51 137.893L764.386 149.077C723.367 160.739 681.982 172.98 640.878 184.178L640.339 184.331C638.594 182.436 639.328 171.206 639.365 167.895C662.259 158.327 687.37 148.98 710.582 139.972L821.765 97.1703Z" fill="#8C5CFF"/>
<path d="M639.42 266.823C662.284 269.016 689.305 273.308 712.462 276.413C749.36 281.354 786.288 286.052 823.246 290.507C824.012 299.992 823.491 316.358 823.516 326.501C813.174 324.746 803.181 321.925 792.974 319.678C741.596 308.366 690.658 294.68 639.39 283.004C639.218 277.924 639.396 271.969 639.42 266.823Z" fill="#8C5CFF"/>
<path d="M0.678051 161.796C17.0639 163.64 48.5578 171.011 66.0018 174.663C106.737 183.129 147.389 191.993 187.951 201.253C188.123 206.382 188.011 212.04 188.019 217.212C181.926 216.925 172.135 215.528 165.798 214.8L122.63 209.723C81.9952 204.79 41.3137 200.255 0.58989 196.12C-0.0726233 187.358 0.0412544 170.388 0.678051 161.796Z" fill="white"/>
<path d="M0.472908 225.718C17.4693 225.332 38.1364 227.237 55.374 227.941L188.002 233.821C188.125 239.346 188.011 244.575 187.887 250.087L179.398 250.539C156.452 252.303 131.363 253.165 108.234 254.446C72.3348 256.602 36.4164 258.442 0.48455 259.966C-0.0285618 249.313 0.206556 236.431 0.472908 225.718Z" fill="white"/>
<path d="M821.636 162.078C822.408 162.066 821.893 162.02 823.1 162.588C823.84 165.706 823.553 190.931 823.547 196.11C814.454 197.575 803.818 198.411 794.48 199.495L738.693 206.023C707.901 209.613 671.768 214.861 641.374 217.419L640.051 217.439C638.686 215.124 639.384 205.028 639.475 201.636C645.807 199.69 654.33 198.054 660.949 196.597L697.528 188.568C738.846 179.509 780.214 170.679 821.636 162.078Z" fill="#8C5CFF"/>
<path d="M71.9056 0.590219C73.5307 0.45245 76.6357 0.0948674 77.916 0.941685C82.4997 3.97443 87.2512 7.98625 91.549 11.4347L121.4 35.6018C152.726 60.9126 185.373 86.2896 216.286 111.767C211.41 115.228 208.857 117.539 204.776 121.828C199.812 119.342 195.344 116.092 190.766 112.949L82.9026 43.0199C73.7976 37.1981 64.6155 31.4988 55.3581 25.9231C50.2055 22.7746 42.4299 18.2711 37.9307 14.574C47.4747 6.35446 59.6546 2.36284 71.9056 0.590219Z" fill="white"/>
<path d="M803.303 226.58C809.598 226.165 817.044 226.224 823.424 226.119C823.277 237.31 823.497 248.996 823.546 260.225L670.476 251.935C663.974 250.97 646.217 250.488 639.408 250.33C639.31 245.046 639.39 239.573 639.396 234.273C678.093 231.337 718.371 231.057 757.228 228.655C772.247 227.727 788.4 228.085 803.303 226.58Z" fill="#8C5CFF"/>
<path d="M752.948 1.53003C760.981 1.70025 783.949 7.75717 787.421 14.9481C786.416 18.2766 742.924 45.1782 736.771 49.1233L639.071 111.914L623.592 121.815C619.465 117.622 616.122 114.96 611.334 111.665C616.134 106.771 627.731 98.0703 633.316 93.6862L674.646 61.4165L721.506 25.1987C730.439 18.2386 743.653 7.3555 752.948 1.53003Z" fill="#8C5CFF"/>
<path d="M616.9 356.478C620.261 357.262 755.844 459.419 771.194 470.299C767.876 471.763 763.816 473.232 760.24 473.808C749.164 475.896 745.539 475.565 734.211 475.443C730.305 473.281 722.038 465.793 718.34 462.578L691.98 439.568L639.61 393.651C628.674 384.075 616.728 373.972 606.215 364.046C610.476 361.34 613.085 359.699 616.9 356.478Z" fill="#8C5CFF"/>
<path d="M208.56 356.656C211.136 356.888 217.465 362.044 219.989 363.887C188.111 390.4 156.917 419.209 124.846 445.593C114.063 454.465 100.557 467.33 89.7574 475.259C82.0467 475.755 74.3047 475.4 66.6723 474.194C61.3361 473.061 57.92 472.247 52.7583 470.569C61.014 464.134 69.7265 457.619 78.2345 451.532C121.799 420.354 164.595 387.161 208.56 356.656Z" fill="white"/>
<path d="M680.383 0.419352C691.301 0.0152314 703.222 0.318932 714.219 0.39792C706.963 8.20052 690.401 22.2774 681.828 29.8608C656.185 52.2767 630.309 74.4311 604.213 96.3222L595.408 103.746C589.677 102.738 584.405 101.752 578.594 101.233C606.147 72.4294 635.391 45.3007 663.349 16.8824C668.75 11.3925 674.634 5.52414 680.383 0.419352Z" fill="#8C5CFF"/>
<path d="M131.174 0.057373C136.504 0.452922 143.585 0.11186 149.37 0.378213C153.099 3.39749 161.069 12.0512 164.715 15.8897L192.961 45.7929C210.219 64.1461 229.755 83.0761 246.266 101.601C241.286 102.292 237.43 102.965 232.519 104.033C228.7 101.752 219.848 93.5159 216.042 90.1347L186.668 63.9458L141.439 23.2576C134.597 17.0568 122.963 7.07439 117.113 0.398431L131.174 0.057373Z" fill="white"/>
<path d="M587.013 370.439C588.813 370.194 589.719 370.427 591.097 371.731C618.136 397.392 644.251 424.015 670.966 450.02C679.655 458.482 688.251 467.25 697.167 475.443L687.174 475.486C681.449 475.688 674.726 475.492 668.927 475.467C646.1 451.33 624.56 425.228 601.88 400.858C593.467 391.808 583.443 381.16 575.955 371.449C580.076 371.327 582.917 370.978 587.013 370.439Z" fill="#8C5CFF"/>
<path d="M236.253 370.114C240.075 370.298 245.223 371.327 249.757 371.633L190.255 436.966C180.378 447.846 165.477 465.517 155.25 475.284C151 475.535 145.619 475.412 141.28 475.437L127.687 475.296C143.044 459.97 158.855 444.871 174.485 429.814C194.978 410.067 215.369 389.383 236.253 370.114Z" fill="white"/>
<path d="M623.347 0.3428C631.381 0.151761 639.481 0.351976 647.521 0.468314C640.773 9.55798 627.939 23.0758 619.955 31.9598C601.139 52.6667 582.445 73.4863 563.88 94.4173L558.278 100.712L544.96 100.692C564.15 76.8129 582.635 50.6571 602.119 26.8372C608.26 19.3297 616.979 6.94895 623.347 0.3428Z" fill="#8C5CFF"/>
<path d="M181.451 0.42903C188.329 0.254524 195.21 0.241061 202.088 0.388014C205.157 3.54996 210.135 10.567 212.884 14.2898L231.405 39.3979C245.95 59.1056 263.218 80.8595 276.889 100.875C274.985 100.971 268.548 101.376 267.3 100.767C261.943 98.1541 252.978 86.1474 249.272 81.7609L220.002 46.8748L195.608 18.0744C191.366 13.0535 184.835 5.81915 181.451 0.42903Z" fill="white"/>
<path d="M546.693 371.547L555.406 371.571C562.607 378.135 637.375 473.006 637.957 474.898L636.977 475.535C631.062 475.375 624.786 475.559 618.841 475.633C609.748 464.85 593.553 440.266 584.784 427.928C575.159 414.629 565.613 401.274 556.135 387.871C553.814 384.626 546.136 375.331 545.511 372.3L546.693 371.547Z" fill="#8C5CFF"/>
<path d="M268.865 372.086C272.037 371.792 275.964 371.951 279.204 371.982C276.032 377.327 271.347 383.989 267.577 388.979C246.532 416.845 227.34 448.073 205.881 475.424L195.316 475.473L185.607 475.271C200.967 455.794 216.503 436.457 232.214 417.268C243.96 402.689 256.729 386.065 268.865 372.086Z" fill="white"/>
<path d="M578.404 0.32009C584.062 0.0996607 590.448 0.333573 596.155 0.416847C590.332 10.0557 582.758 20.3119 576.335 29.7236L530.724 96.1843L527.258 100.745L518.264 100.709C522.25 93.1847 526.86 85.4194 531.287 78.1342C546.968 52.3403 561.786 25.5134 578.404 0.32009Z" fill="#8C5CFF"/>
<path d="M230.21 0.398438C235.706 0.30598 241.204 0.292499 246.702 0.357403C254.328 12.6243 263.272 29.8784 270.518 42.8464L303.35 100.729C300.577 100.857 297.501 100.748 294.702 100.711C292.169 97.5853 287.575 90.0331 285.217 86.393L267.495 59.0064L244.603 23.5803C239.922 16.333 234.173 7.9555 230.21 0.398438Z" fill="white"/>
<path d="M518.717 371.921C521.515 371.902 524.319 371.951 527.118 372.055C533.926 381.448 543.454 397.564 549.865 407.685C564.211 430.175 578.392 452.763 592.408 475.455L576.322 475.559C563.96 450.914 547.722 425.338 534.667 400.815C529.781 391.637 522.991 381.191 518.717 371.921Z" fill="#8C5CFF"/>
<path d="M296.949 372.19L304.852 371.945C297.094 385.018 289.102 400.717 281.689 414.28L247.75 475.4L238.789 475.431L232.524 475.057C244.808 453.357 260.832 430.273 273.903 408.732C278.334 401.434 292.287 377.474 296.949 372.19Z" fill="white"/>
<path d="M540.172 0.358076C544.635 0.0978469 549.779 0.339088 554.31 0.446854C538.659 31.2868 519.402 64.527 505.038 95.6253C504.021 97.8933 503.972 98.1829 502.338 99.9807C499.882 101.241 497.519 100.788 494.659 100.668C508.479 69.3679 524.925 30.5129 540.172 0.358076Z" fill="#8C5CFF"/>
<path d="M272.431 0.331093C277.21 0.38069 282.039 0.332314 286.823 0.320068C299.406 33.8431 314.062 67.687 327.613 100.885C324.831 100.906 322.797 101.162 320.22 100.167C318.424 97.9772 313.207 86.4518 311.641 83.2004C304.84 69.1799 298.127 55.117 291.5 41.0132C287.312 32.2126 275.093 8.42148 272.431 0.331093Z" fill="white"/>
<path d="M495.094 371.908L497.323 371.933C500.109 371.963 501.762 371.712 503.164 374.596C519.5 408.169 536.578 441.772 552.516 475.516C548.205 475.577 543.901 475.596 539.59 475.571C530.338 453.437 520.86 431.394 511.161 409.449C506.03 397.705 499.319 383.615 495.094 371.908Z" fill="#8C5CFF"/>
<path d="M321.244 372.104C323.215 372.08 325.756 371.731 327.213 372.814C320.204 393.216 308.328 417.445 300.36 437.982C297.859 444.43 287.933 469.424 285.1 474.531C283.192 475.78 281.769 475.504 279.46 475.504L272.522 475.32C276.389 465.554 317.151 377.027 321.244 372.104Z" fill="white"/>
<path d="M310.013 0.366581C313.752 0.283308 317.72 0.360461 321.481 0.377606C326.381 15.9846 330.83 34.6991 335.314 50.7923C339.623 66.2548 345.584 85.4867 349.03 100.847C346.867 100.869 346.233 100.908 344.04 100.491C341.513 98.8196 330.263 62.6808 328.712 57.6617C322.855 38.7042 315.204 19.4154 310.013 0.366581Z" fill="white"/>
<path d="M506.122 0.380042C509.722 0.222679 513.788 0.353706 517.437 0.392281C514.21 10.0128 509.71 20.5549 506.158 30.1895C497.886 52.6543 488.952 75.2704 481.25 97.9177C480.741 99.1277 480.521 99.315 479.786 100.419C478.182 100.838 475.396 101.241 474.3 99.7859C475.274 92.9893 483.423 70.4032 486.032 62.2308L499.056 21.1298C501.027 15.0631 503.727 6.07325 506.122 0.380042Z" fill="#8C5CFF"/>
<path d="M473.59 371.804C475.482 371.829 476.474 371.902 478.36 372.11C479.915 373.182 480.142 373.347 480.815 375.264C492.608 408.745 505.583 442.017 517.241 475.51C513.708 475.608 510.01 475.584 506.458 475.608C502.35 463.558 498.939 451.159 494.965 439.084C487.587 416.68 480.417 394.386 473.59 371.804Z" fill="#8C5CFF"/>
<path d="M343.446 372.11C345.449 372.006 347.122 371.627 348.754 372.625C348.869 375.129 320.966 466.914 318.249 474.861C317.234 475.431 316.264 475.363 315.021 475.498C312.253 475.522 310.897 475.725 308.3 474.922C308.647 471.494 314.063 456.204 315.535 452.408C325.54 426.569 332.825 397.405 343.446 372.11Z" fill="white"/>
<path d="M454.29 371.4C456.243 371.651 457.419 371.614 459.048 372.71C460.48 376.335 462.103 383.689 463.144 387.859L470.381 417.311C474.735 435.006 481.568 458.268 484.715 475.749C481.923 475.792 478.623 475.541 475.794 475.406C471.165 456.339 467.773 434.92 463.095 415.529C461.381 408.414 454.48 377.309 454.29 371.4Z" fill="#8C5CFF"/>
<path d="M475.745 0.345324C478.592 0.183676 482.193 0.340416 485.101 0.380828C483.497 8.22568 479.933 19.9617 477.882 28.1562L460.389 98.8486C460.174 99.726 460.027 99.6648 459.378 100.468C456.886 100.9 457.223 101.271 455.496 100.318C454.235 96.1385 458.282 83.4296 459.207 78.473C464.093 52.3147 470.234 26.3842 475.745 0.345324Z" fill="#8C5CFF"/>
<path d="M342.771 0.336612L351.125 0.276611C353.22 8.24025 355.459 23.8283 356.989 32.4532C360.863 55.3032 365.058 78.0981 369.572 100.831C367.339 100.901 366.966 100.864 364.743 100.544C362.265 97.979 344.402 12.0518 342.771 0.336612Z" fill="#EEE8F4"/>
<path d="M364.087 372.019C365.983 371.951 367.079 371.719 368.755 372.588C368.899 375.662 350.158 462.793 348.192 474.739C348.086 475.388 346.482 475.437 345.419 475.651C343.447 475.571 341.672 475.81 340.254 474.616C340.249 472.283 345.756 449.071 346.531 445.654C350.165 429.287 353.996 412.969 358.026 396.694C359.688 389.708 361.909 378.356 364.087 372.019Z" fill="#EEE8F4"/>
<path d="M371.056 457.735C374.84 433.751 378.555 399.493 382.792 374.798C382.955 373.856 384.606 372.11 385.993 371.608L386.663 372.135C388.018 377.168 384.687 397.754 383.967 403.852C381.865 421.45 379.867 439.06 377.976 456.682C377.695 462.223 378.262 471.359 374.545 474.867C372.408 475.804 372.252 475.627 369.975 475.461C368.185 472.375 370.478 462.04 371.056 457.735Z" fill="#EEE8F4"/>
<path d="M436.007 371.676L439.154 372.165C439.436 372.484 439.717 372.802 439.999 373.121C443.758 397.717 452.514 454.729 454.896 475.369C452.906 475.639 449.545 475.963 447.806 474.977C445.73 464.838 443.464 438.668 442.295 427.554C440.501 410.557 436.894 388.11 436.007 371.676Z" fill="#8C5CFF"/>
<path d="M371.848 0.370353C374.025 0.290141 376.968 -0.0374258 378.656 1.11432C379.549 5.90315 380.152 11.8939 380.422 16.7801C381.959 44.5751 386.861 73.4036 388.232 101.082C385.83 100.854 385.279 101.229 383.701 99.9862C381.323 88.2753 379.294 64.9311 377.796 52.1223C376.075 37.4001 372.467 14.4154 371.848 0.370353Z" fill="#EEE8F4"/>
<path d="M448.559 0.356236C451.381 0.243572 451.969 0.206224 454.718 0.665452C456.133 2.59299 450.977 32.3491 450.31 36.7492C447.046 57.6104 444.034 78.509 441.266 99.4412L440.648 100.426C438.156 100.96 439.043 101.281 437.384 100.394C436.166 96.8812 437.421 90.4452 437.947 86.6704C441.958 57.9968 444.205 28.9772 448.559 0.356236Z" fill="#8C5CFF"/>
<path d="M422.248 0.377685C424.312 0.325639 426.687 0.107035 428.279 1.08611C428.72 8.03271 427.189 26.5255 426.755 34.0434C425.389 55.839 424.226 77.6475 423.277 99.4651C422.064 100.97 422.818 100.472 420.895 100.954L419.86 100.292C418.164 95.3921 421.844 12.5993 422.248 0.377685Z" fill="#B08CFF"/>
<path d="M401.748 371.565L403.695 372.178C405.875 375.362 403.891 414.384 403.787 421.266C403.701 431.957 403.487 442.642 403.156 453.326C403.016 459.719 402.899 466.393 402.403 472.786C402.22 475.186 401.754 475.131 400.211 476.3C398.87 475.902 397.787 475.516 396.476 475.051C395.769 467.385 397.854 438.919 398.442 430.09C399.679 411.5 399.936 389.879 401.748 371.565Z" fill="#EEE8F4"/>
<path d="M419.309 371.547C420.411 371.89 420.687 372.024 421.734 372.49C422.732 377.094 423.81 401.287 424.122 407.697C425.206 430.2 427.012 453.271 427.832 475.724C425.328 475.694 424.116 475.859 421.795 475.045C420.534 468.511 418.121 377.903 419.309 371.547Z" fill="#B08CFF"/>
<path d="M398.27 0.370308C400.315 0.30173 401.913 -0.00503196 403.677 0.935468C404.363 3.51388 404.62 30.6714 404.607 35.3819C404.546 57.1322 406.089 79.9032 405.373 101.448L402.575 100.526C401.123 98.4419 400.174 56.4727 400.034 50.1801C399.672 34.4102 397.78 15.9424 398.27 0.370308Z" fill="#EEE8F4"/>
</g>
<defs>
<clipPath id="clip0_47_74">
<rect width="824" height="477" fill="white"/>
</clipPath>
</defs>
</svg>
