<svg width="173" height="58" viewBox="0 0 173 58" fill="none" xmlns="http://www.w3.org/2000/svg">
<path d="M39.44 36.48H18.16L14.48 57.6H0L10.16 0H50.32L48.08 12.48H22.32L20.32 24H41.6L39.44 36.48Z" fill="white"/>
<path d="M73.325 0L81.885 27.6L100.285 0H115.405L105.245 57.6H90.765L96.525 25.12L84.205 44.48H73.725L68.285 25.12L62.525 57.6H48.125L58.285 0H73.325Z" fill="white"/>
<path d="M153.121 57.6H116.641L126.801 0H141.201L133.281 45.12H155.361L153.121 57.6Z" fill="white"/>
<path d="M160.246 45.6H172.246L170.246 57.6H158.246L160.246 45.6Z" fill="white"/>
</svg>
